<?xml version="1.0" encoding="UTF-8"?><svg id="Camada_2" xmlns="http://www.w3.org/2000/svg" viewBox="0 0 3568.17 780.91"><g id="Logo_Horizontal"><g id="logo-horizontal-multicolor"><path d="M386.69,387.64c1.47.73,2.94,1.47,4.38,2.24l-.11-.16-4.28-2.08Z" fill="none"/><path d="M387.16,387.92l3.45,1.68c-1.14-.57-2.29-1.14-3.45-1.68Z" fill="#00afda"/><circle cx="390.46" cy="390.46" r="390.46" transform="translate(-161.73 390.46) rotate(-45)" fill="#4c4d9a"/><polygon points="535.97 390.02 454.93 471.05 493.29 509.42 612.69 390.02 494.17 271.5 455.81 309.86 535.97 390.02" fill="#fff"/><rect x="597.93" y="312.25" width="53.95" height="53.95" transform="translate(826.9195 1020.972) rotate(-135.0006)" fill="#e61f68"/><polygon points="244.95 390.9 325.98 309.86 287.62 271.5 168.22 390.9 286.75 509.42 325.11 471.05 244.95 390.9" fill="#fff"/><rect x="129.03" y="414.71" width="53.95" height="53.95" transform="translate(358.01 19.05) rotate(45)" fill="#e61f68"/><rect x="376.99" y="229.32" width="26.94" height="322.27" transform="translate(133.9 -98.51) rotate(17.31)" fill="#fff"/><text transform="translate(885.64 476.13)" font-size="283.8"><tspan x="0" y="0" fill="#4c4d9a" font-family="SkiaCC-Bold, &apos;Skia CC&apos;" font-weight="700" letter-spacing="-.09em">T</tspan><tspan x="141.34" y="0" fill="#4c4d9a" font-family="SkiaCC-Bold, &apos;Skia CC&apos;" font-weight="700" letter-spacing="-.02em">u</tspan><tspan x="312.97" y="0" fill="#4c4d9a" font-family="SkiaCC-Bold, &apos;Skia CC&apos;" font-weight="700" letter-spacing="-.03em">p</tspan><tspan x="472.52" y="0" fill="#4c4d9a" font-family="SkiaCC-Bold, &apos;Skia CC&apos;" font-weight="700" letter-spacing="-.02em">y</tspan><tspan x="626.55" y="0" fill="#4c4d9a" font-family="SkiaCC-Bold, &apos;Skia CC&apos;" font-weight="700" letter-spacing="-.02em">n</tspan><tspan x="798.41" y="0" fill="#4c4d9a" font-family="SkiaCC-Bold, &apos;Skia CC&apos;" font-weight="700" letter-spacing="-.02em">a</tspan><tspan x="950.02" y="0" fill="#4c4d9a" font-family="SkiaCC-Bold, &apos;Skia CC&apos;" font-weight="700" letter-spacing="-.02em">m</tspan><tspan x="1210.79" y="0" fill="#4c4d9a" font-family="SkiaCC-Bold, &apos;Skia CC&apos;" font-weight="700" letter-spacing="-.02em">b</tspan><tspan x="1374.79" y="0" fill="#4c4d9a" font-family="SkiaCC-Bold, &apos;Skia CC&apos;" font-weight="700" letter-spacing="-.02em">ál</tspan><tspan x="1605.43" y="0" fill="#4c4d9a" font-family="SkiaCC-Bold, &apos;Skia CC&apos;" font-weight="700" letter-spacing="-.02em">u</tspan><tspan x="1777.17" y="0" fill="#4c4d9a" font-family="SkiaCC-Bold, &apos;Skia CC&apos;" font-weight="700" letter-spacing="0em">c</tspan><tspan x="1908.65" y="0" fill="#4c4d9a" font-family="SkiaCC-Bold, &apos;Skia CC&apos;" font-weight="700" letter-spacing="-.02em">a</tspan><tspan x="2061.66" y="0" fill="#4c4d9a" font-family="SkiaCC-Bold, &apos;Skia CC&apos;" font-weight="700" letter-spacing="-.03em">s</tspan><tspan x="2181.95" y="0" fill="#e61f68" font-family="SkiaCC-Regular, &apos;Skia CC&apos;" letter-spacing="-.03em">.</tspan><tspan x="2246.73" y="0" fill="#e61f68" font-family="SkiaCC-Regular, &apos;Skia CC&apos;" letter-spacing="-.03em">d</tspan><tspan x="2395.58" y="0" fill="#e61f68" font-family="SkiaCC-Regular, &apos;Skia CC&apos;" letter-spacing="-.03em">e</tspan><tspan x="2531.34" y="0" fill="#e61f68" font-family="SkiaCC-Regular, &apos;Skia CC&apos;" letter-spacing="0em">v</tspan></text></g></g></svg>