<?xml version="1.0" encoding="UTF-8"?><svg id="Camada_2" xmlns="http://www.w3.org/2000/svg" viewBox="0 0 138.66 138.66"><g id="EXPORT"><g id="logo-mark-positive"><circle id="shape" cx="69.33" cy="69.33" r="69.33" fill="#fff"/><path id="logo" d="M108.95,71.96c-4-10.2-15.55-11.06-24.09-6.08-4.49,2.77-8.05,6.82-11.55,10.69-.12.25-.31.31-.43,0-2.52-9.34-5.84-19.3-16.47-21.76-6.95-1.84-15.18,1.04-20.41,5.78-12.91,11.25-7.87,33.13,8.67,37.43,7.56,2.03,15.67-.61,21.2-5.96,2.34-2.09,4.24-4.67,6.08-7.19.12-.12.18-.31.43-.31,1.91,5.84,6.02,11.25,12.17,12.97,1.6.43,3.01.92,4.73.8l-.06-.06c13.64,1.04,24.09-13.64,19.73-26.31ZM70.05,80.38c-1.41,1.29-2.83,2.58-4.3,3.81-2.77,2.34-5.65,4.73-9.22,5.53-6.15,2.03-12.85-1.91-14.75-7.93-2.52-6.76.68-15.3,7.07-18.68l2.27-1.11c5.04-1.97,9.71,1.41,12.54,4.79,2.46,2.77,4,6.15,5.41,9.53.43,1.04.74,2.09,1.23,3.13.12.37.06.68-.25.92ZM86.34,90.22c-5.35-.18-9.16-4.79-11.43-9.22-.12-.31-.06-.49.12-.68.98-1.23,1.78-2.52,2.7-3.81,2.34-3.26,4.67-6.95,8.54-8.54,5.47-2.34,12.35.31,14.2,6.15,3.01,8.97-5.47,16.72-14.14,16.1ZM65.93,54.26c-1.66-5.9.31-10.14,4.61-14.14,1.6-1.17,3.07,4.12,3.13,5.16.61,4.79-.92,9.71-4.3,13.15-.43.37-.55.37-.98-.06-1.04-1.23-1.97-2.52-2.52-4.06l.06-.06ZM81.73,57.77c.31,0,.43.37.25.68-1.72,3.07-4.3,6.64-8.17,6.76-.55-.18-2.95.43-2.21-.68.92-1.41,2.03-2.46,3.13-3.75-.37.12-.61.25-.8.43-.68.68-1.54,1.17-2.09,1.97-1.23.98-.18-1.6,0-2.03,1.91-3.44,6.39-4.36,9.9-3.38ZM62.61,74.11c0,1.04-1.84,1.91-2.77,2.15-5.47.86-11.12.12-16.72.37-.74,0-.86-.18-.61-.92.18-.74.61-1.6,1.48-1.72,1.72-.37,3.44-.31,5.1-.25,2.4.06,4.73.06,7.13.25v-.06h5.78c.25,0,.49-.06.61.18Z" fill="#8ea637"/></g></g></svg>