<?xml version="1.0" encoding="UTF-8"?><svg id="Camada_2" xmlns="http://www.w3.org/2000/svg" viewBox="0 0 1198.96 250"><g id="github-profile-header"><g id="profile-header-logo-horizontal"><g id="Mark"><circle cx="125" cy="125" r="125" transform="translate(-51.78 125) rotate(-45)" fill="#4c4d9a"/><polygon points="171.58 124.86 145.64 150.8 157.92 163.08 196.15 124.86 158.2 86.92 145.92 99.2 171.58 124.86" fill="#fff"/><rect x="191.42" y="99.96" width="17.27" height="17.27" transform="translate(264.73 326.85) rotate(-135)" fill="#e61f68"/><polygon points="78.42 125.14 104.36 99.2 92.08 86.92 53.85 125.14 91.8 163.08 104.08 150.8 78.42 125.14" fill="#fff"/><rect x="41.31" y="132.76" width="17.27" height="17.27" transform="translate(114.61 6.1) rotate(45)" fill="#e61f68"/><rect x="120.69" y="73.41" width="8.62" height="103.17" transform="translate(42.87 -31.54) rotate(17.31)" fill="#fff"/></g><text transform="translate(340.19 100.08)" font-size="90.85"><tspan x="0" y="0" fill="#4c4d9a" font-family="SkiaCC-Bold, &apos;Skia CC&apos;" font-weight="700" letter-spacing="-.09em">T</tspan><tspan x="45.25" y="0" fill="#4c4d9a" font-family="SkiaCC-Bold, &apos;Skia CC&apos;" font-weight="700" letter-spacing="-.02em">u</tspan><tspan x="100.19" y="0" fill="#4c4d9a" font-family="SkiaCC-Bold, &apos;Skia CC&apos;" font-weight="700" letter-spacing="-.03em">p</tspan><tspan x="151.27" y="0" fill="#4c4d9a" font-family="SkiaCC-Bold, &apos;Skia CC&apos;" font-weight="700" letter-spacing="-.02em">y</tspan><tspan x="200.58" y="0" fill="#4c4d9a" font-family="SkiaCC-Bold, &apos;Skia CC&apos;" font-weight="700" letter-spacing="-.02em">n</tspan><tspan x="255.6" y="0" fill="#4c4d9a" font-family="SkiaCC-Bold, &apos;Skia CC&apos;" font-weight="700" letter-spacing="-.02em">a</tspan><tspan x="304.14" y="0" fill="#4c4d9a" font-family="SkiaCC-Bold, &apos;Skia CC&apos;" font-weight="700" letter-spacing="-.02em">m</tspan><tspan x="387.62" y="0" fill="#4c4d9a" font-family="SkiaCC-Bold, &apos;Skia CC&apos;" font-weight="700" letter-spacing="-.02em">b</tspan><tspan x="440.12" y="0" fill="#4c4d9a" font-family="SkiaCC-Bold, &apos;Skia CC&apos;" font-weight="700" letter-spacing="-.02em">ál</tspan><tspan x="513.96" y="0" fill="#4c4d9a" font-family="SkiaCC-Bold, &apos;Skia CC&apos;" font-weight="700" letter-spacing="-.02em">u</tspan><tspan x="568.94" y="0" fill="#4c4d9a" font-family="SkiaCC-Bold, &apos;Skia CC&apos;" font-weight="700" letter-spacing="0em">c</tspan><tspan x="611.03" y="0" fill="#4c4d9a" font-family="SkiaCC-Bold, &apos;Skia CC&apos;" font-weight="700" letter-spacing="-.02em">a</tspan><tspan x="660.01" y="0" fill="#4c4d9a" font-family="SkiaCC-Bold, &apos;Skia CC&apos;" font-weight="700" letter-spacing="-.03em">s</tspan><tspan x="698.52" y="0" fill="#e61f68" font-family="SkiaCC-Regular, &apos;Skia CC&apos;" letter-spacing="-.03em">.</tspan><tspan x="719.26" y="0" fill="#e61f68" font-family="SkiaCC-Regular, &apos;Skia CC&apos;" letter-spacing="-.03em">d</tspan><tspan x="766.92" y="0" fill="#e61f68" font-family="SkiaCC-Regular, &apos;Skia CC&apos;" letter-spacing="-.03em">e</tspan><tspan x="810.38" y="0" fill="#e61f68" font-family="SkiaCC-Regular, &apos;Skia CC&apos;">v</tspan></text><text transform="translate(339.66 182.72)" font-family="Nunito-SemiBold, Nunito" font-size="50" font-weight="600"><tspan x="0" y="0">End-</tspan><tspan x="109.25" y="0" letter-spacing="0em">t</tspan><tspan x="127.25" y="0" letter-spacing=".01em">o</tspan><tspan x="156.25" y="0">-End Digital Solu</tspan><tspan x="546.94" y="0" letter-spacing="0em">t</tspan><tspan x="565.64" y="0">ions</tspan></text></g></g></svg>