<?xml version="1.0" encoding="UTF-8"?><svg id="Camada_2" xmlns="http://www.w3.org/2000/svg" viewBox="0 0 1198.96 250"><g id="github-profile-header"><g id="github-header"><g id="Mark"><circle cx="125" cy="125" r="125" transform="translate(-51.78 125) rotate(-45)" fill="#4c4d9a"/><polygon points="171.58 124.86 145.64 150.8 157.92 163.08 196.15 124.86 158.2 86.92 145.92 99.2 171.58 124.86" fill="#fff"/><rect x="191.42" y="99.96" width="17.27" height="17.27" transform="translate(264.73 326.85) rotate(-135)" fill="#e61f68"/><polygon points="78.42 125.14 104.36 99.2 92.08 86.92 53.85 125.14 91.8 163.08 104.08 150.8 78.42 125.14" fill="#fff"/><rect x="41.31" y="132.76" width="17.27" height="17.27" transform="translate(114.61 6.1) rotate(45)" fill="#e61f68"/><rect x="120.69" y="73.41" width="8.62" height="103.17" transform="translate(42.87 -31.54) rotate(17.31)" fill="#fff"/></g><g id="text"><text transform="translate(340.19 100.08)" font-size="90.85"><tspan x="0" y="0" fill="#4c4d9a" font-family="SkiaCC-Bold, &apos;Skia CC&apos;" font-weight="700" letter-spacing="-.09em">T</tspan><tspan x="45.25" y="0" fill="#4c4d9a" font-family="SkiaCC-Bold, &apos;Skia CC&apos;" font-weight="700" letter-spacing="-.02em">u</tspan><tspan x="100.19" y="0" fill="#4c4d9a" font-family="SkiaCC-Bold, &apos;Skia CC&apos;" font-weight="700" letter-spacing="-.03em">p</tspan><tspan x="151.27" y="0" fill="#4c4d9a" font-family="SkiaCC-Bold, &apos;Skia CC&apos;" font-weight="700" letter-spacing="-.02em">y</tspan><tspan x="200.58" y="0" fill="#4c4d9a" font-family="SkiaCC-Bold, &apos;Skia CC&apos;" font-weight="700" letter-spacing="-.02em">n</tspan><tspan x="255.6" y="0" fill="#4c4d9a" font-family="SkiaCC-Bold, &apos;Skia CC&apos;" font-weight="700" letter-spacing="-.02em">a</tspan><tspan x="304.14" y="0" fill="#4c4d9a" font-family="SkiaCC-Bold, &apos;Skia CC&apos;" font-weight="700" letter-spacing="-.02em">m</tspan><tspan x="387.62" y="0" fill="#4c4d9a" font-family="SkiaCC-Bold, &apos;Skia CC&apos;" font-weight="700" letter-spacing="-.02em">b</tspan><tspan x="440.12" y="0" fill="#4c4d9a" font-family="SkiaCC-Bold, &apos;Skia CC&apos;" font-weight="700" letter-spacing="-.02em">ál</tspan><tspan x="513.96" y="0" fill="#4c4d9a" font-family="SkiaCC-Bold, &apos;Skia CC&apos;" font-weight="700" letter-spacing="-.02em">u</tspan><tspan x="568.94" y="0" fill="#4c4d9a" font-family="SkiaCC-Bold, &apos;Skia CC&apos;" font-weight="700" letter-spacing="0em">c</tspan><tspan x="611.03" y="0" fill="#4c4d9a" font-family="SkiaCC-Bold, &apos;Skia CC&apos;" font-weight="700" letter-spacing="-.02em">a</tspan><tspan x="660.01" y="0" fill="#4c4d9a" font-family="SkiaCC-Bold, &apos;Skia CC&apos;" font-weight="700" letter-spacing="-.03em">s</tspan><tspan x="698.52" y="0" fill="#e61f68" font-family="SkiaCC-Regular, &apos;Skia CC&apos;" letter-spacing="-.03em">.</tspan><tspan x="719.26" y="0" fill="#e61f68" font-family="SkiaCC-Regular, &apos;Skia CC&apos;" letter-spacing="-.03em">d</tspan><tspan x="766.92" y="0" fill="#e61f68" font-family="SkiaCC-Regular, &apos;Skia CC&apos;" letter-spacing="-.03em">e</tspan><tspan x="810.38" y="0" fill="#e61f68" font-family="SkiaCC-Regular, &apos;Skia CC&apos;">v</tspan></text><path d="M346.9,184.59c-1.1,0-1.94-.29-2.53-.88-.58-.58-.88-1.43-.88-2.52v-28.45c0-1.1.29-1.94.88-2.52.58-.58,1.43-.88,2.53-.88h17.85c.83,0,1.48.22,1.93.65.45.43.67,1.05.67,1.85s-.23,1.48-.67,1.93c-.45.45-1.09.68-1.93.68h-15.1v9.7h14c.87,0,1.52.22,1.95.65.43.43.65,1.07.65,1.9s-.22,1.47-.65,1.9c-.43.43-1.08.65-1.95.65h-14v10.25h15.1c.83,0,1.48.22,1.93.65.45.43.67,1.07.67,1.9s-.23,1.47-.67,1.9c-.45.43-1.09.65-1.93.65h-17.85Z" fill="#2e55a3"/><path d="M375.85,184.99c-1,0-1.77-.27-2.3-.82s-.8-1.34-.8-2.38v-18.9c0-1.03.27-1.82.8-2.35.53-.53,1.28-.8,2.25-.8s1.72.27,2.25.8c.53.53.8,1.32.8,2.35v3.4l-.55-1.25c.73-1.77,1.88-3.11,3.42-4.02,1.55-.92,3.31-1.38,5.28-1.38s3.58.37,4.85,1.1c1.27.73,2.22,1.84,2.85,3.33.63,1.48.95,3.36.95,5.62v12.1c0,1.03-.27,1.82-.8,2.38s-1.3.82-2.3.82-1.77-.27-2.33-.82c-.55-.55-.82-1.34-.82-2.38v-11.8c0-1.9-.36-3.28-1.08-4.15-.72-.87-1.83-1.3-3.33-1.3-1.83,0-3.29.57-4.38,1.73-1.08,1.15-1.62,2.68-1.62,4.57v10.95c0,2.13-1.05,3.2-3.15,3.2Z" fill="#2e55a3"/><path d="M411.4,185.09c-2.13,0-4.01-.52-5.62-1.55-1.62-1.03-2.88-2.51-3.78-4.43-.9-1.92-1.35-4.17-1.35-6.77s.45-4.89,1.35-6.77c.9-1.88,2.16-3.34,3.78-4.38,1.62-1.03,3.49-1.55,5.62-1.55s3.81.5,5.32,1.5,2.54,2.32,3.08,3.95h-.55v-13c0-1.03.27-1.82.8-2.35.53-.53,1.3-.8,2.3-.8s1.78.27,2.33.8c.55.53.83,1.32.83,2.35v29.7c0,1.03-.27,1.82-.8,2.38-.53.55-1.3.82-2.3.82s-1.77-.27-2.3-.82-.8-1.34-.8-2.38v-3.9l.55,1.5c-.5,1.73-1.52,3.12-3.05,4.15-1.53,1.03-3.33,1.55-5.4,1.55ZM413.15,180.34c1.23,0,2.32-.3,3.25-.9.93-.6,1.66-1.49,2.17-2.68.52-1.18.77-2.66.77-4.43,0-2.67-.57-4.66-1.7-5.98-1.13-1.32-2.63-1.97-4.5-1.97-1.23,0-2.32.29-3.25.88-.93.58-1.66,1.47-2.18,2.65-.52,1.18-.77,2.66-.77,4.43,0,2.63.57,4.62,1.7,5.98,1.13,1.35,2.63,2.02,4.5,2.02Z" fill="#2e55a3"/><path d="M434.3,173.69c-.73,0-1.34-.24-1.83-.73-.48-.48-.72-1.07-.72-1.77s.24-1.33.72-1.8c.48-.47,1.09-.7,1.83-.7h10.65c.7,0,1.29.23,1.77.7.48.47.73,1.07.73,1.8s-.24,1.29-.73,1.77c-.48.48-1.07.73-1.77.73h-10.65Z" fill="#2e55a3"/><path d="M464.9,185.09c-2.17,0-3.98-.37-5.42-1.1-1.45-.73-2.53-1.81-3.23-3.22-.7-1.42-1.05-3.18-1.05-5.28v-10.65h-2.6c-.8,0-1.42-.21-1.85-.62-.43-.42-.65-.99-.65-1.73s.22-1.35.65-1.75c.43-.4,1.05-.6,1.85-.6h2.6v-4.55c0-1.03.28-1.82.83-2.35.55-.53,1.33-.8,2.33-.8s1.77.27,2.3.8c.53.53.8,1.32.8,2.35v4.55h5.3c.8,0,1.42.2,1.85.6.43.4.65.98.65,1.75s-.22,1.31-.65,1.73c-.43.42-1.05.62-1.85.62h-5.3v10.3c0,1.6.35,2.8,1.05,3.6.7.8,1.83,1.2,3.4,1.2.57,0,1.07-.05,1.5-.15.43-.1.82-.17,1.15-.2.4-.03.73.09,1,.38.27.28.4.86.4,1.73,0,.67-.11,1.26-.33,1.77-.22.52-.61.88-1.17,1.07-.43.13-1,.26-1.7.38-.7.12-1.32.18-1.85.18Z" fill="#2e55a3"/><path d="M483.8,185.09c-2.53,0-4.73-.52-6.6-1.55-1.87-1.03-3.32-2.51-4.35-4.43-1.03-1.92-1.55-4.17-1.55-6.77,0-1.97.29-3.73.88-5.27.58-1.55,1.42-2.88,2.52-4,1.1-1.12,2.42-1.97,3.95-2.55,1.53-.58,3.25-.88,5.15-.88,2.53,0,4.73.52,6.6,1.55,1.87,1.03,3.32,2.5,4.35,4.4s1.55,4.15,1.55,6.75c0,1.97-.29,3.73-.88,5.3-.58,1.57-1.43,2.91-2.53,4.02-1.1,1.12-2.42,1.97-3.95,2.55s-3.25.88-5.15.88ZM483.8,180.34c1.23,0,2.32-.3,3.25-.9.93-.6,1.66-1.49,2.17-2.68.52-1.18.77-2.66.77-4.43,0-2.67-.57-4.66-1.7-5.98-1.13-1.32-2.63-1.97-4.5-1.97-1.23,0-2.32.29-3.25.88-.93.58-1.66,1.47-2.18,2.65-.52,1.18-.77,2.66-.77,4.43,0,2.63.57,4.62,1.7,5.98,1.13,1.35,2.63,2.02,4.5,2.02Z" fill="#2e55a3"/><path d="M504.5,173.69c-.73,0-1.34-.24-1.83-.73-.48-.48-.72-1.07-.72-1.77s.24-1.33.72-1.8c.48-.47,1.09-.7,1.83-.7h10.65c.7,0,1.29.23,1.77.7.48.47.73,1.07.73,1.8s-.24,1.29-.73,1.77c-.48.48-1.07.73-1.77.73h-10.65Z" fill="#2e55a3"/><path d="M527.9,184.59c-1.1,0-1.94-.29-2.53-.88-.58-.58-.88-1.43-.88-2.52v-28.45c0-1.1.29-1.94.88-2.52.58-.58,1.43-.88,2.53-.88h17.85c.83,0,1.48.22,1.93.65.45.43.67,1.05.67,1.85s-.23,1.48-.67,1.93c-.45.45-1.09.68-1.93.68h-15.1v9.7h14c.87,0,1.52.22,1.95.65.43.43.65,1.07.65,1.9s-.22,1.47-.65,1.9c-.43.43-1.08.65-1.95.65h-14v10.25h15.1c.83,0,1.48.22,1.93.65.45.43.67,1.07.67,1.9s-.23,1.47-.67,1.9c-.45.43-1.09.65-1.93.65h-17.85Z" fill="#2e55a3"/><path d="M556.85,184.99c-1,0-1.77-.27-2.3-.82s-.8-1.34-.8-2.38v-18.9c0-1.03.27-1.82.8-2.35.53-.53,1.28-.8,2.25-.8s1.72.27,2.25.8c.53.53.8,1.32.8,2.35v3.4l-.55-1.25c.73-1.77,1.88-3.11,3.42-4.02,1.55-.92,3.31-1.38,5.28-1.38s3.58.37,4.85,1.1c1.27.73,2.22,1.84,2.85,3.33.63,1.48.95,3.36.95,5.62v12.1c0,1.03-.27,1.82-.8,2.38s-1.3.82-2.3.82-1.77-.27-2.33-.82c-.55-.55-.82-1.34-.82-2.38v-11.8c0-1.9-.36-3.28-1.08-4.15-.72-.87-1.83-1.3-3.33-1.3-1.83,0-3.29.57-4.38,1.73-1.08,1.15-1.62,2.68-1.62,4.57v10.95c0,2.13-1.05,3.2-3.15,3.2Z" fill="#2e55a3"/><path d="M592.4,185.09c-2.13,0-4.01-.52-5.62-1.55-1.62-1.03-2.88-2.51-3.78-4.43-.9-1.92-1.35-4.17-1.35-6.77s.45-4.89,1.35-6.77c.9-1.88,2.16-3.34,3.78-4.38,1.62-1.03,3.49-1.55,5.62-1.55s3.81.5,5.32,1.5,2.54,2.32,3.08,3.95h-.55v-13c0-1.03.27-1.82.8-2.35.53-.53,1.3-.8,2.3-.8s1.78.27,2.33.8c.55.53.83,1.32.83,2.35v29.7c0,1.03-.27,1.82-.8,2.38-.53.55-1.3.82-2.3.82s-1.77-.27-2.3-.82-.8-1.34-.8-2.38v-3.9l.55,1.5c-.5,1.73-1.52,3.12-3.05,4.15-1.53,1.03-3.33,1.55-5.4,1.55ZM594.15,180.34c1.23,0,2.32-.3,3.25-.9.93-.6,1.66-1.49,2.17-2.68.52-1.18.77-2.66.77-4.43,0-2.67-.57-4.66-1.7-5.98-1.13-1.32-2.63-1.97-4.5-1.97-1.23,0-2.32.29-3.25.88-.93.58-1.66,1.47-2.18,2.65-.52,1.18-.77,2.66-.77,4.43,0,2.63.57,4.62,1.7,5.98,1.13,1.35,2.63,2.02,4.5,2.02Z" fill="#2e55a3"/><path d="M630.55,184.59c-1.1,0-1.94-.29-2.53-.88-.58-.58-.88-1.43-.88-2.52v-28.45c0-1.1.29-1.94.88-2.52.58-.58,1.43-.88,2.53-.88h9.7c5.9,0,10.46,1.52,13.67,4.55,3.22,3.03,4.83,7.38,4.83,13.05,0,2.83-.41,5.34-1.23,7.52-.82,2.18-2.02,4.02-3.6,5.52-1.58,1.5-3.52,2.64-5.8,3.43-2.28.78-4.91,1.18-7.88,1.18h-9.7ZM633.55,179.29h6.3c2.07,0,3.86-.26,5.38-.77,1.52-.52,2.78-1.28,3.8-2.3,1.02-1.02,1.78-2.3,2.28-3.85.5-1.55.75-3.36.75-5.42,0-4.13-1.02-7.22-3.05-9.25-2.03-2.03-5.08-3.05-9.15-3.05h-6.3v24.65Z" fill="#2e55a3"/><path d="M667.75,155.14c-1.17,0-2.07-.29-2.72-.88-.65-.58-.97-1.39-.97-2.43s.32-1.88.97-2.45c.65-.57,1.56-.85,2.72-.85s2.12.28,2.75.85c.63.57.95,1.38.95,2.45s-.32,1.84-.95,2.43c-.63.58-1.55.88-2.75.88ZM667.75,184.94c-1,0-1.77-.3-2.3-.9-.53-.6-.8-1.43-.8-2.5v-18.35c0-1.1.27-1.94.8-2.53.53-.58,1.3-.88,2.3-.88s1.78.29,2.33.88c.55.58.83,1.43.83,2.53v18.35c0,1.07-.27,1.9-.8,2.5-.53.6-1.32.9-2.35.9Z" fill="#2e55a3"/><path d="M688.8,194.09c-1.8,0-3.54-.17-5.23-.5-1.68-.33-3.21-.85-4.58-1.55-.63-.33-1.06-.73-1.27-1.2-.22-.47-.28-.94-.2-1.43.08-.48.28-.91.6-1.27.32-.37.71-.62,1.18-.75.47-.13.95-.07,1.45.2,1.47.73,2.86,1.21,4.18,1.43,1.32.22,2.44.32,3.38.32,2.23,0,3.91-.54,5.02-1.62,1.12-1.08,1.67-2.69,1.67-4.82v-4.5h.45c-.5,1.7-1.54,3.06-3.12,4.07-1.58,1.02-3.38,1.52-5.38,1.52-2.2,0-4.12-.51-5.75-1.52-1.63-1.02-2.9-2.44-3.8-4.27-.9-1.83-1.35-3.97-1.35-6.4,0-1.83.26-3.49.77-4.97.52-1.48,1.25-2.76,2.2-3.83.95-1.07,2.1-1.89,3.45-2.47,1.35-.58,2.84-.88,4.47-.88,2.07,0,3.88.51,5.42,1.52,1.55,1.02,2.56,2.36,3.03,4.03l-.5,1.25v-3.55c0-1.03.28-1.82.83-2.35.55-.53,1.31-.8,2.27-.8s1.77.27,2.3.8c.53.53.8,1.32.8,2.35v19.25c0,3.97-1.05,6.95-3.15,8.95-2.1,2-5.15,3-9.15,3ZM688.65,179.24c1.3,0,2.42-.3,3.35-.9s1.66-1.46,2.18-2.57c.52-1.12.77-2.44.77-3.98,0-2.3-.57-4.11-1.7-5.43-1.13-1.32-2.67-1.97-4.6-1.97-1.3,0-2.42.3-3.35.9-.93.6-1.66,1.45-2.18,2.55s-.77,2.42-.77,3.95c0,2.3.57,4.12,1.7,5.45,1.13,1.33,2.67,2,4.6,2Z" fill="#2e55a3"/><path d="M710.7,155.14c-1.17,0-2.07-.29-2.72-.88-.65-.58-.97-1.39-.97-2.43s.32-1.88.97-2.45c.65-.57,1.56-.85,2.72-.85s2.12.28,2.75.85c.63.57.95,1.38.95,2.45s-.32,1.84-.95,2.43c-.63.58-1.55.88-2.75.88ZM710.7,184.94c-1,0-1.77-.3-2.3-.9-.53-.6-.8-1.43-.8-2.5v-18.35c0-1.1.27-1.94.8-2.53.53-.58,1.3-.88,2.3-.88s1.78.29,2.33.88c.55.58.83,1.43.83,2.53v18.35c0,1.07-.27,1.9-.8,2.5-.53.6-1.32.9-2.35.9Z" fill="#2e55a3"/><path d="M731.55,185.09c-2.17,0-3.98-.37-5.42-1.1-1.45-.73-2.53-1.81-3.23-3.22-.7-1.42-1.05-3.18-1.05-5.28v-10.65h-2.6c-.8,0-1.42-.21-1.85-.62-.43-.42-.65-.99-.65-1.73s.22-1.35.65-1.75c.43-.4,1.05-.6,1.85-.6h2.6v-4.55c0-1.03.28-1.82.83-2.35.55-.53,1.33-.8,2.33-.8s1.77.27,2.3.8c.53.53.8,1.32.8,2.35v4.55h5.3c.8,0,1.42.2,1.85.6.43.4.65.98.65,1.75s-.22,1.31-.65,1.73c-.43.42-1.05.62-1.85.62h-5.3v10.3c0,1.6.35,2.8,1.05,3.6.7.8,1.83,1.2,3.4,1.2.57,0,1.07-.05,1.5-.15.43-.1.82-.17,1.15-.2.4-.03.73.09,1,.38.27.28.4.86.4,1.73,0,.67-.11,1.26-.33,1.77-.22.52-.61.88-1.17,1.07-.43.13-1,.26-1.7.38-.7.12-1.32.18-1.85.18Z" fill="#2e55a3"/><path d="M747.6,185.09c-1.77,0-3.34-.34-4.72-1.02-1.38-.68-2.47-1.61-3.25-2.78-.78-1.17-1.17-2.48-1.17-3.95,0-1.8.47-3.23,1.4-4.27.93-1.05,2.45-1.81,4.55-2.28,2.1-.47,4.92-.7,8.45-.7h2.5v3.6h-2.45c-2.07,0-3.72.1-4.95.3-1.23.2-2.11.54-2.62,1.03-.52.48-.78,1.16-.78,2.02,0,1.1.38,2,1.15,2.7.77.7,1.83,1.05,3.2,1.05,1.1,0,2.08-.26,2.93-.77.85-.52,1.52-1.23,2.02-2.12.5-.9.75-1.93.75-3.1v-5.75c0-1.67-.37-2.87-1.1-3.6-.73-.73-1.97-1.1-3.7-1.1-.97,0-2.01.12-3.12.35-1.12.23-2.29.63-3.53,1.2-.63.3-1.19.38-1.67.25-.48-.13-.86-.41-1.12-.82-.27-.42-.4-.88-.4-1.38s.13-.99.4-1.48c.27-.48.72-.84,1.35-1.07,1.53-.63,3.01-1.08,4.42-1.35,1.42-.27,2.71-.4,3.88-.4,2.4,0,4.38.37,5.92,1.1,1.55.73,2.71,1.84,3.47,3.33.77,1.48,1.15,3.39,1.15,5.72v12c0,1.03-.25,1.82-.75,2.38s-1.22.82-2.15.82-1.66-.27-2.17-.82-.77-1.34-.77-2.38v-2.4h.4c-.23,1.17-.69,2.18-1.38,3.02-.68.85-1.54,1.51-2.58,1.98-1.03.47-2.22.7-3.55.7Z" fill="#2e55a3"/><path d="M775.25,185.09c-2.77,0-4.85-.79-6.25-2.38-1.4-1.58-2.1-3.91-2.1-6.98v-23.65c0-1.03.27-1.82.8-2.35.53-.53,1.3-.8,2.3-.8s1.78.27,2.33.8c.55.53.83,1.32.83,2.35v23.35c0,1.53.33,2.67.97,3.4.65.73,1.58,1.1,2.78,1.1.27,0,.52,0,.75-.03.23-.02.47-.04.7-.07.47-.07.78.06.95.38.17.32.25.96.25,1.93,0,.83-.17,1.48-.5,1.95-.33.47-.88.75-1.65.85-.33.03-.68.07-1.05.1-.37.03-.73.05-1.1.05Z" fill="#2e55a3"/><path d="M809.15,185.09c-1.47,0-2.93-.11-4.4-.32-1.47-.22-2.85-.55-4.15-1s-2.47-1.01-3.5-1.68c-.6-.4-1.02-.88-1.25-1.45-.23-.57-.31-1.12-.23-1.68s.3-1.03.65-1.45c.35-.42.79-.68,1.33-.78.53-.1,1.12.05,1.75.45,1.47.87,3.02,1.5,4.65,1.9s3.35.6,5.15.6c2.63,0,4.55-.44,5.75-1.33,1.2-.88,1.8-2.02,1.8-3.42,0-1.17-.42-2.08-1.27-2.75-.85-.67-2.31-1.22-4.38-1.65l-5.5-1.15c-3.17-.67-5.53-1.79-7.08-3.38-1.55-1.58-2.33-3.68-2.33-6.28,0-1.63.33-3.12,1-4.45.67-1.33,1.61-2.48,2.83-3.45,1.22-.97,2.67-1.71,4.35-2.23,1.68-.52,3.54-.77,5.58-.77s3.9.25,5.7.75,3.42,1.23,4.85,2.2c.53.37.89.82,1.08,1.35.18.53.22,1.06.12,1.57-.1.52-.33.96-.7,1.32-.37.37-.83.58-1.38.65-.55.07-1.17-.1-1.88-.5-1.23-.7-2.48-1.2-3.75-1.5-1.27-.3-2.63-.45-4.1-.45s-2.85.22-3.95.65c-1.1.43-1.94,1.04-2.53,1.82-.58.78-.88,1.71-.88,2.77,0,1.2.4,2.16,1.2,2.88.8.72,2.17,1.28,4.1,1.68l5.45,1.15c3.3.7,5.76,1.8,7.38,3.3s2.43,3.5,2.43,6c0,1.6-.33,3.05-.98,4.35-.65,1.3-1.58,2.42-2.8,3.35-1.22.93-2.67,1.65-4.38,2.15s-3.62.75-5.75.75Z" fill="#2e55a3"/><path d="M839.1,185.09c-2.53,0-4.73-.52-6.6-1.55-1.87-1.03-3.32-2.51-4.35-4.43-1.03-1.92-1.55-4.17-1.55-6.77,0-1.97.29-3.73.88-5.27.58-1.55,1.42-2.88,2.52-4,1.1-1.12,2.42-1.97,3.95-2.55,1.53-.58,3.25-.88,5.15-.88,2.53,0,4.73.52,6.6,1.55,1.87,1.03,3.32,2.5,4.35,4.4s1.55,4.15,1.55,6.75c0,1.97-.29,3.73-.88,5.3-.58,1.57-1.43,2.91-2.53,4.02-1.1,1.12-2.42,1.97-3.95,2.55s-3.25.88-5.15.88ZM839.1,180.34c1.23,0,2.32-.3,3.25-.9.93-.6,1.66-1.49,2.17-2.68.52-1.18.77-2.66.77-4.43,0-2.67-.57-4.66-1.7-5.98-1.13-1.32-2.63-1.97-4.5-1.97-1.23,0-2.32.29-3.25.88-.93.58-1.66,1.47-2.18,2.65-.52,1.18-.77,2.66-.77,4.43,0,2.63.57,4.62,1.7,5.98,1.13,1.35,2.63,2.02,4.5,2.02Z" fill="#2e55a3"/><path d="M865.1,185.09c-2.77,0-4.85-.79-6.25-2.38-1.4-1.58-2.1-3.91-2.1-6.98v-23.65c0-1.03.27-1.82.8-2.35.53-.53,1.3-.8,2.3-.8s1.78.27,2.33.8c.55.53.83,1.32.83,2.35v23.35c0,1.53.33,2.67.97,3.4.65.73,1.58,1.1,2.78,1.1.27,0,.52,0,.75-.03.23-.02.47-.04.7-.07.47-.07.78.06.95.38.17.32.25.96.25,1.93,0,.83-.17,1.48-.5,1.95-.33.47-.88.75-1.65.85-.33.03-.68.07-1.05.1-.37.03-.73.05-1.1.05Z" fill="#2e55a3"/><path d="M881.55,185.09c-2.03,0-3.72-.38-5.05-1.12s-2.33-1.88-2.97-3.38c-.65-1.5-.98-3.37-.98-5.6v-12.1c0-1.07.27-1.86.8-2.38.53-.52,1.3-.78,2.3-.78s1.77.26,2.33.78c.55.52.82,1.31.82,2.38v12.2c0,1.73.35,3.02,1.05,3.85.7.83,1.82,1.25,3.35,1.25,1.67,0,3.03-.58,4.1-1.73s1.6-2.68,1.6-4.57v-11c0-1.07.27-1.86.8-2.38.53-.52,1.3-.78,2.3-.78s1.78.26,2.33.78c.55.52.83,1.31.83,2.38v18.9c0,2.13-1.02,3.2-3.05,3.2-.97,0-1.72-.27-2.25-.82-.53-.55-.8-1.34-.8-2.38v-3.8l.7,1.5c-.7,1.8-1.76,3.18-3.17,4.15-1.42.97-3.09,1.45-5.03,1.45Z" fill="#2e55a3"/><path d="M912.84,185.09c-2.17,0-3.98-.37-5.42-1.1-1.45-.73-2.53-1.81-3.23-3.22-.7-1.42-1.05-3.18-1.05-5.28v-10.65h-2.6c-.8,0-1.42-.21-1.85-.62-.43-.42-.65-.99-.65-1.73s.22-1.35.65-1.75c.43-.4,1.05-.6,1.85-.6h2.6v-4.55c0-1.03.28-1.82.83-2.35.55-.53,1.33-.8,2.33-.8s1.77.27,2.3.8c.53.53.8,1.32.8,2.35v4.55h5.3c.8,0,1.42.2,1.85.6.43.4.65.98.65,1.75s-.22,1.31-.65,1.73c-.43.42-1.05.62-1.85.62h-5.3v10.3c0,1.6.35,2.8,1.05,3.6.7.8,1.83,1.2,3.4,1.2.57,0,1.07-.05,1.5-.15.43-.1.82-.17,1.15-.2.4-.03.73.09,1,.38.27.28.4.86.4,1.73,0,.67-.11,1.26-.33,1.77-.22.52-.61.88-1.17,1.07-.43.13-1,.26-1.7.38-.7.12-1.32.18-1.85.18Z" fill="#2e55a3"/><path d="M924.59,155.14c-1.17,0-2.07-.29-2.72-.88-.65-.58-.97-1.39-.97-2.43s.32-1.88.97-2.45c.65-.57,1.56-.85,2.72-.85s2.12.28,2.75.85c.63.57.95,1.38.95,2.45s-.32,1.84-.95,2.43c-.63.58-1.55.88-2.75.88ZM924.59,184.94c-1,0-1.77-.3-2.3-.9-.53-.6-.8-1.43-.8-2.5v-18.35c0-1.1.27-1.94.8-2.53.53-.58,1.3-.88,2.3-.88s1.78.29,2.33.88c.55.58.83,1.43.83,2.53v18.35c0,1.07-.27,1.9-.8,2.5-.53.6-1.32.9-2.35.9Z" fill="#2e55a3"/><path d="M945.39,185.09c-2.53,0-4.73-.52-6.6-1.55-1.87-1.03-3.32-2.51-4.35-4.43-1.03-1.92-1.55-4.17-1.55-6.77,0-1.97.29-3.73.88-5.27.58-1.55,1.42-2.88,2.52-4,1.1-1.12,2.42-1.97,3.95-2.55,1.53-.58,3.25-.88,5.15-.88,2.53,0,4.73.52,6.6,1.55,1.87,1.03,3.32,2.5,4.35,4.4s1.55,4.15,1.55,6.75c0,1.97-.29,3.73-.88,5.3-.58,1.57-1.43,2.91-2.53,4.02-1.1,1.12-2.42,1.97-3.95,2.55s-3.25.88-5.15.88ZM945.39,180.34c1.23,0,2.32-.3,3.25-.9.93-.6,1.66-1.49,2.17-2.68.52-1.18.77-2.66.77-4.43,0-2.67-.57-4.66-1.7-5.98-1.13-1.32-2.63-1.97-4.5-1.97-1.23,0-2.32.29-3.25.88-.93.58-1.66,1.47-2.18,2.65-.52,1.18-.77,2.66-.77,4.43,0,2.63.57,4.62,1.7,5.98,1.13,1.35,2.63,2.02,4.5,2.02Z" fill="#2e55a3"/><path d="M966.14,184.99c-1,0-1.77-.27-2.3-.82s-.8-1.34-.8-2.38v-18.9c0-1.03.27-1.82.8-2.35.53-.53,1.28-.8,2.25-.8s1.72.27,2.25.8c.53.53.8,1.32.8,2.35v3.4l-.55-1.25c.73-1.77,1.88-3.11,3.42-4.02,1.55-.92,3.31-1.38,5.28-1.38s3.58.37,4.85,1.1c1.27.73,2.22,1.84,2.85,3.33.63,1.48.95,3.36.95,5.62v12.1c0,1.03-.27,1.82-.8,2.38s-1.3.82-2.3.82-1.77-.27-2.33-.82c-.55-.55-.82-1.34-.82-2.38v-11.8c0-1.9-.36-3.28-1.08-4.15-.72-.87-1.83-1.3-3.33-1.3-1.83,0-3.29.57-4.38,1.73-1.08,1.15-1.62,2.68-1.62,4.57v10.95c0,2.13-1.05,3.2-3.15,3.2Z" fill="#2e55a3"/><path d="M1001.24,185.09c-1.43,0-2.95-.15-4.55-.45-1.6-.3-3.03-.82-4.3-1.55-.53-.33-.91-.73-1.12-1.18s-.3-.9-.25-1.35c.05-.45.22-.84.5-1.18.28-.33.65-.55,1.1-.65.45-.1.94-.02,1.47.25,1.33.63,2.58,1.08,3.75,1.33s2.32.38,3.45.38c1.6,0,2.79-.28,3.58-.83.78-.55,1.17-1.27,1.17-2.17,0-.77-.26-1.36-.78-1.78-.52-.42-1.29-.72-2.32-.93l-5-.95c-2.07-.4-3.64-1.16-4.73-2.27-1.08-1.12-1.62-2.56-1.62-4.32,0-1.6.44-2.98,1.33-4.15.88-1.17,2.11-2.07,3.67-2.7,1.57-.63,3.37-.95,5.4-.95,1.47,0,2.84.16,4.12.47,1.28.32,2.52.81,3.72,1.48.5.27.84.62,1.03,1.05.18.43.22.88.12,1.32-.1.45-.3.85-.6,1.2-.3.35-.67.57-1.12.65-.45.08-.96,0-1.52-.28-1.03-.53-2.03-.92-2.98-1.15-.95-.23-1.86-.35-2.72-.35-1.63,0-2.84.28-3.62.85-.78.57-1.17,1.32-1.17,2.25,0,.7.23,1.28.7,1.75.47.47,1.18.78,2.15.95l5,.95c2.17.4,3.81,1.13,4.92,2.2,1.12,1.07,1.68,2.5,1.68,4.3,0,2.43-.95,4.34-2.85,5.73-1.9,1.38-4.43,2.07-7.6,2.07Z" fill="#2e55a3"/></g></g></g></svg>