<?xml version="1.0" encoding="UTF-8"?><svg id="Camada_2" xmlns="http://www.w3.org/2000/svg" viewBox="0 0 3568.79 782.16"><g id="Logo_Horizontal"><g id="logo-horizontal-positive"><path d="M387.32,388.26c1.47.73,2.94,1.47,4.38,2.25l-.11-.16-4.28-2.08Z" fill="none"/><path d="M387.78,388.54l3.45,1.68c-1.14-.57-2.29-1.14-3.45-1.68Z" fill="#00b0db"/><circle cx="391.08" cy="391.08" r="390.46" stroke="#000" stroke-miterlimit="10" stroke-width="1.24"/><polygon points="536.59 390.64 455.55 471.68 493.92 510.04 613.31 390.64 494.79 272.12 456.43 310.48 536.59 390.64" fill="#fff"/><rect x="598.55" y="312.88" width="53.95" height="53.95" transform="translate(827.5346 1022.4781) rotate(-135)" fill="#fff"/><polygon points="245.57 391.52 326.61 310.48 288.24 272.12 168.85 391.52 287.37 510.04 325.73 471.68 245.57 391.52" fill="#fff"/><rect x="129.65" y="415.33" width="53.95" height="53.95" transform="translate(358.64 18.79) rotate(45)" fill="#fff"/><rect x="377.61" y="229.94" width="26.94" height="322.27" transform="translate(134.12 -98.67) rotate(17.32)" fill="#fff"/><text transform="translate(886.26 476.75)" font-size="283.8"><tspan x="0" y="0" font-family="SkiaCC-Bold, &apos;Skia CC&apos;" font-weight="700" letter-spacing="-.09em">T</tspan><tspan x="141.34" y="0" font-family="SkiaCC-Bold, &apos;Skia CC&apos;" font-weight="700" letter-spacing="-.02em">u</tspan><tspan x="312.97" y="0" font-family="SkiaCC-Bold, &apos;Skia CC&apos;" font-weight="700" letter-spacing="-.03em">p</tspan><tspan x="472.52" y="0" font-family="SkiaCC-Bold, &apos;Skia CC&apos;" font-weight="700" letter-spacing="-.02em">y</tspan><tspan x="626.55" y="0" font-family="SkiaCC-Bold, &apos;Skia CC&apos;" font-weight="700" letter-spacing="-.02em">n</tspan><tspan x="798.41" y="0" font-family="SkiaCC-Bold, &apos;Skia CC&apos;" font-weight="700" letter-spacing="-.02em">a</tspan><tspan x="950.02" y="0" font-family="SkiaCC-Bold, &apos;Skia CC&apos;" font-weight="700" letter-spacing="-.02em">m</tspan><tspan x="1210.79" y="0" font-family="SkiaCC-Bold, &apos;Skia CC&apos;" font-weight="700" letter-spacing="-.02em">b</tspan><tspan x="1374.79" y="0" font-family="SkiaCC-Bold, &apos;Skia CC&apos;" font-weight="700" letter-spacing="-.02em">ál</tspan><tspan x="1605.43" y="0" font-family="SkiaCC-Bold, &apos;Skia CC&apos;" font-weight="700" letter-spacing="-.02em">u</tspan><tspan x="1777.17" y="0" font-family="SkiaCC-Bold, &apos;Skia CC&apos;" font-weight="700" letter-spacing="0em">c</tspan><tspan x="1908.65" y="0" font-family="SkiaCC-Bold, &apos;Skia CC&apos;" font-weight="700" letter-spacing="-.02em">a</tspan><tspan x="2061.66" y="0" font-family="SkiaCC-Bold, &apos;Skia CC&apos;" font-weight="700" letter-spacing="-.03em">s</tspan><tspan x="2181.95" y="0" font-family="SkiaCC-Regular, &apos;Skia CC&apos;" letter-spacing="-.03em">.</tspan><tspan x="2246.73" y="0" font-family="SkiaCC-Regular, &apos;Skia CC&apos;" letter-spacing="-.03em">d</tspan><tspan x="2395.58" y="0" font-family="SkiaCC-Regular, &apos;Skia CC&apos;" letter-spacing="-.03em">e</tspan><tspan x="2531.34" y="0" font-family="SkiaCC-Regular, &apos;Skia CC&apos;" letter-spacing="0em">v</tspan></text></g></g></svg>