<?xml version="1.0" encoding="UTF-8"?><svg id="Camada_2" xmlns="http://www.w3.org/2000/svg" viewBox="0 0 780.92 780.92"><g id="Logo_Mark"><g id="logo-mark-purple"><path d="M386.69,387.64c1.47.73,2.94,1.47,4.38,2.24l-.11-.16-4.28-2.08Z" fill="none"/><path d="M387.16,387.92l3.45,1.68c-1.14-.57-2.29-1.14-3.45-1.68Z" fill="#00afda"/><circle cx="390.46" cy="390.46" r="390.46" transform="translate(-161.73 390.46) rotate(-45)" fill="#4c4d9a"/><polygon points="535.97 390.02 454.93 471.06 493.29 509.42 612.69 390.02 494.17 271.5 455.81 309.86 535.97 390.02" fill="#fff"/><rect x="597.93" y="312.25" width="53.95" height="53.95" transform="translate(826.9189 1020.9727) rotate(-135.0006)" fill="#e61f68"/><polygon points="244.95 390.9 325.98 309.86 287.62 271.5 168.22 390.9 286.75 509.42 325.11 471.06 244.95 390.9" fill="#fff"/><rect x="129.03" y="414.71" width="53.95" height="53.95" transform="translate(358.01 19.05) rotate(45)" fill="#e61f68"/><rect x="376.99" y="229.32" width="26.94" height="322.27" transform="translate(133.9 -98.51) rotate(17.31)" fill="#fff"/></g></g></svg>